<svg width="92" height="31" viewBox="0 0 92 31" fill="none" xmlns="http://www.w3.org/2000/svg">
<path d="M19.8789 18.856L19.9688 19.2827C19.9688 19.4624 19.8752 19.6758 19.688 19.9229C19.1938 20.5667 18.4002 21.3079 17.3071 22.1465C16.2215 22.9775 15.4204 23.3931 14.9038 23.3931C14.3872 23.3931 13.9829 23.2433 13.6909 22.9438C13.3989 22.6369 13.2529 22.2887 13.2529 21.8994C13.2529 21.4352 13.7396 20.4095 14.7129 18.8223C16.1729 16.4639 18.0371 13.7087 20.3057 10.5566C19.8265 11.0508 18.5537 12.3835 16.4873 14.5547C11.9128 19.3464 9.23991 22.0604 8.46875 22.6968C8.34147 22.8016 8.1543 22.854 7.90723 22.854C7.66764 22.854 7.41309 22.7567 7.14355 22.562C6.87402 22.3599 6.73926 22.1353 6.73926 21.8882V21.832C6.76921 21.5176 7.4917 19.979 8.90674 17.2163C10.3218 14.4536 11.5085 12.2562 12.4668 10.624C11.0518 12.1813 9.62174 13.9183 8.17676 15.835C5.42904 19.4736 3.41878 22.5732 2.146 25.1338C2.03369 25.3734 1.89518 25.4932 1.73047 25.4932C1.56576 25.4932 1.32617 25.452 1.01172 25.3696C0.352865 25.1899 0.0234375 24.8755 0.0234375 24.4263C0.0234375 24.1567 0.57373 23.1947 1.67432 21.54C2.7749 19.8779 4.05143 18.0661 5.50391 16.1045C6.95638 14.1354 8.46126 12.2412 10.0186 10.4219C12.1673 7.90625 13.5487 6.64844 14.1626 6.64844C14.2599 6.64844 14.3535 6.67464 14.4434 6.72705C14.5332 6.77197 14.5894 6.79443 14.6118 6.79443C14.6343 6.79443 14.6567 6.7832 14.6792 6.76074C14.7765 6.64095 14.9674 6.58105 15.252 6.58105C15.5439 6.58105 15.8247 6.63721 16.0942 6.74951C16.3713 6.86182 16.5098 6.9891 16.5098 7.13135C16.5098 7.22119 16.1354 7.9362 15.3867 9.27637C12.8786 13.7236 11.194 16.7783 10.333 18.4404C11.1566 17.4447 12.332 16.1232 13.8594 14.4761C15.3942 12.8289 17.0039 11.1855 18.6885 9.5459C20.8822 7.4196 22.1924 6.35645 22.6191 6.35645C22.7913 6.35645 23.0085 6.39388 23.2705 6.46875C23.7347 6.60352 24.1802 6.6709 24.6069 6.6709C24.7267 6.69336 24.8278 6.74577 24.9102 6.82812C25 6.90299 25.0449 6.98161 25.0449 7.06396C25.0449 7.14632 25.0225 7.2137 24.9775 7.26611C22.5443 10.5005 20.4928 13.353 18.8232 15.8237C17.1536 18.2944 16.1242 19.964 15.7349 20.8325C16.521 20.6678 17.6927 19.7282 19.25 18.0137C19.3174 17.9238 19.366 17.8639 19.396 17.834C19.4259 17.804 19.4521 17.7741 19.4746 17.7441C19.6019 17.5944 19.6992 17.688 19.7666 18.0249C19.7965 18.2196 19.8153 18.3581 19.8228 18.4404C19.8377 18.5153 19.849 18.5977 19.8564 18.6875C19.8714 18.7699 19.8789 18.826 19.8789 18.856ZM29.0317 14.4648C29.6007 14.4648 29.8853 14.6595 29.8853 15.0488C29.8853 15.2585 29.8366 15.4119 29.7393 15.5093C29.6419 15.6066 29.4323 15.9323 29.1104 16.4863C28.7959 17.0329 28.444 17.7367 28.0547 18.5977C27.6729 19.4512 27.4258 20.1812 27.3135 20.7876C27.291 20.8625 27.2798 20.9673 27.2798 21.1021C27.2798 21.5138 27.3921 21.7197 27.6167 21.7197C27.8413 21.7197 28.1071 21.6149 28.4141 21.4053C28.721 21.1882 28.9943 20.9598 29.2339 20.7202C29.4735 20.4731 29.7056 20.2223 29.9302 19.9678C30.1623 19.7132 30.3008 19.5672 30.3457 19.5298C30.3906 19.4924 30.458 19.4736 30.5479 19.4736C30.6901 19.4736 30.7762 19.5822 30.8062 19.7993C30.8361 20.0164 30.8511 20.241 30.8511 20.4731C30.8511 20.7052 30.8286 20.8662 30.7837 20.9561C30.5666 21.3828 30.0874 21.8957 29.3462 22.4946C28.6125 23.0936 27.9424 23.3931 27.3359 23.3931C26.737 23.3931 26.2952 23.2096 26.0107 22.8428C25.7262 22.4759 25.584 22.0716 25.584 21.6299C25.584 21.1807 25.6589 20.7876 25.8086 20.4507C25.1872 21.2593 24.4722 21.9443 23.6636 22.5059C22.8625 23.0674 22.2074 23.3481 21.6982 23.3481C21.1891 23.3481 20.7736 23.1947 20.4517 22.8877C20.0399 22.5059 19.834 21.978 19.834 21.3042C19.834 20.6229 19.9837 19.9416 20.2832 19.2603C20.5902 18.5715 20.9907 17.9463 21.4849 17.3848C21.979 16.8158 22.5218 16.2992 23.1133 15.835C24.3561 14.8617 25.5016 14.375 26.5498 14.375C26.9541 14.375 27.2835 14.4424 27.5381 14.5771C27.7926 14.7119 27.9536 14.8804 28.021 15.0825C28.2007 14.813 28.3504 14.6445 28.4702 14.5771C28.5975 14.5023 28.7847 14.4648 29.0317 14.4648ZM27.5381 15.7114C26.2578 15.7114 24.9326 16.4227 23.5625 17.8452C23.0758 18.3543 22.6266 18.9645 22.2148 19.6758C21.8105 20.387 21.6084 20.8737 21.6084 21.1357C21.6084 21.3978 21.6833 21.5288 21.833 21.5288C22.0426 21.5288 22.6266 21.117 23.585 20.2935C24.5433 19.4624 25.1797 18.8522 25.4941 18.4629C25.8385 18.0286 26.5199 17.1115 27.5381 15.7114ZM37.5557 8.53516L38.0161 8.64746C38.0835 8.64746 38.1434 8.68115 38.1958 8.74854C38.2482 8.81592 38.2744 8.87956 38.2744 8.93945C38.2744 8.99935 38.1958 9.16032 38.0386 9.42236C37.8813 9.68441 37.6942 9.98389 37.4771 10.3208C37.2674 10.6502 37.1551 10.8299 37.1401 10.8599C37.7241 10.8149 38.1359 10.7925 38.3755 10.7925C38.6226 10.7925 38.791 10.8112 38.8809 10.8486C38.9707 10.8786 39.0718 10.9722 39.1841 11.1294C39.3039 11.2791 39.4124 11.3952 39.5098 11.4775C39.6071 11.5524 39.6558 11.6685 39.6558 11.8257C39.6558 11.9829 39.5584 12.1177 39.3638 12.23C39.1766 12.3348 38.9744 12.3984 38.7573 12.4209C37.0203 12.5931 36.062 12.6829 35.8823 12.6904C35.2759 13.6188 34.4261 15.0675 33.333 17.0366C32.2474 18.9982 31.6709 20.2261 31.6035 20.7202C31.5736 20.9448 31.5586 21.1283 31.5586 21.2705C31.5586 21.5625 31.7121 21.7085 32.019 21.7085C32.326 21.7085 32.6667 21.5924 33.041 21.3604C33.4154 21.1208 33.7598 20.8625 34.0742 20.5854C34.9128 19.8368 35.362 19.4624 35.4219 19.4624C35.6165 19.4624 35.7139 19.7993 35.7139 20.4731C35.7139 20.84 35.5454 21.1694 35.2085 21.4614C34.4523 22.1128 33.8159 22.6032 33.2993 22.9326C32.7827 23.262 32.2661 23.4268 31.7495 23.4268C31.6372 23.4268 31.5324 23.4155 31.4351 23.3931C30.8361 23.2808 30.3944 23.0636 30.1099 22.7417C29.8328 22.4123 29.6943 21.9705 29.6943 21.4165C29.7018 20.8625 29.8665 20.1924 30.1885 19.4062C30.5179 18.6126 30.9297 17.7703 31.4238 16.8794C32.2324 15.4269 33.041 14.0643 33.8496 12.7915L33.4229 12.8477C32.5544 12.945 32.049 12.9937 31.9067 12.9937H31.8057C31.5885 12.9937 31.3789 12.9525 31.1768 12.8701C30.9746 12.7803 30.8735 12.6717 30.8735 12.5444C30.8735 12.4172 30.9259 12.2936 31.0308 12.1738C31.1431 12.054 31.2104 11.9604 31.2329 11.8931C31.2853 11.7284 31.48 11.5449 31.8169 11.3428C32.1613 11.1406 32.4196 11.0358 32.5918 11.0283C32.764 11.0133 32.9287 11.0021 33.0859 10.9946C33.2507 10.9871 33.4303 10.9797 33.625 10.9722C33.8271 10.9647 33.9806 10.9572 34.0854 10.9497L35.0962 10.9048C35.7251 9.96143 36.1556 9.35498 36.3877 9.08545C36.6273 8.81592 36.7658 8.66992 36.8032 8.64746C36.8407 8.61751 36.9155 8.60254 37.0278 8.60254L37.5557 8.53516ZM42.0703 20.5068C42.4596 20.2598 42.7104 20.0913 42.8228 20.0015C42.9351 19.9041 43.0661 19.7918 43.2158 19.6646C43.3656 19.5373 43.4891 19.4736 43.5864 19.4736C43.7362 19.4736 43.811 19.6458 43.811 19.9902C43.811 20.3271 43.6426 20.694 43.3057 21.0908C42.9762 21.4801 42.5645 21.8133 42.0703 22.0903C41.5762 22.3599 41.0483 22.5957 40.4868 22.7979C39.3713 23.2096 38.4204 23.4155 37.6343 23.4155C36.8556 23.4155 36.1519 23.161 35.5229 22.6519C34.894 22.1353 34.5796 21.4652 34.5796 20.6416C34.5796 19.8105 34.7855 18.9832 35.1973 18.1597C35.609 17.3286 36.1369 16.6024 36.7808 15.981C37.4321 15.3521 38.1846 14.8429 39.0381 14.4536C39.8991 14.0643 40.7489 13.8696 41.5874 13.8696C41.9917 13.8696 42.3548 13.9857 42.6768 14.2178C42.9987 14.4499 43.1597 14.7681 43.1597 15.1724C43.1597 15.5767 42.9575 16.0633 42.5532 16.6323C42.1564 17.1938 41.7521 17.4746 41.3403 17.4746C40.8612 17.4746 40.6216 17.2463 40.6216 16.7896C40.6216 16.6698 40.7339 16.4564 40.9585 16.1494C41.1831 15.8424 41.2954 15.6366 41.2954 15.5317C41.2954 15.4194 41.2542 15.3633 41.1719 15.3633C40.7601 15.3633 40.3184 15.5055 39.8467 15.79C39.375 16.0745 38.9445 16.374 38.5552 16.6885C38.1733 17.0029 37.8102 17.3548 37.4658 17.7441C36.7171 18.5902 36.3428 19.4699 36.3428 20.3833C36.3428 20.7502 36.4588 21.0684 36.6909 21.3379C36.9305 21.5999 37.3273 21.731 37.8813 21.731C38.4429 21.731 39.0044 21.6673 39.5659 21.54C40.1274 21.4053 40.5879 21.263 40.9473 21.1133C41.3141 20.9561 41.6885 20.7539 42.0703 20.5068ZM53.0537 19.687C53.1061 20.0314 53.1323 20.3047 53.1323 20.5068C53.1323 20.7015 53.0949 20.8737 53.02 21.0234C52.9526 21.1657 52.7954 21.3716 52.5483 21.6411C52.3088 21.9032 52.0205 22.1689 51.6836 22.4385C50.86 23.0898 50.0177 23.4155 49.1567 23.4155C47.9214 23.4155 47.3037 22.869 47.3037 21.7759C47.3037 20.825 48.131 18.9308 49.7856 16.0933C49.8455 15.9884 49.8867 15.9136 49.9092 15.8687C49.3327 16.2729 48.2284 17.3773 46.5962 19.1816C44.9715 20.9785 43.8896 22.2513 43.3506 23C43.3057 23.0674 43.1934 23.1423 43.0137 23.2246C42.834 23.307 42.6917 23.3481 42.5869 23.3481C42.4896 23.3481 42.3848 23.3145 42.2725 23.2471C42.1527 23.1872 42.0778 23.1572 42.0479 23.1572C41.9505 23.1572 41.9019 23.1235 41.9019 23.0562C41.9019 22.9963 42.0366 22.6556 42.3062 22.0342C42.5682 21.4053 42.9163 20.6266 43.3506 19.6982C44.541 17.1377 46.3117 13.806 48.6626 9.70312C49.4862 8.26562 50.13 7.2474 50.5942 6.64844C50.9237 6.22168 51.4777 6.0083 52.2563 6.0083C52.4211 6.0083 52.5146 6.05697 52.5371 6.1543C52.5596 6.25163 52.5708 6.35645 52.5708 6.46875C52.5708 6.58105 52.5483 6.69336 52.5034 6.80566L51.3018 8.68115C48.9209 12.3947 47.1278 15.4718 45.9224 17.9126C47.0903 16.4901 48.2246 15.3932 49.3252 14.6221C50.0065 14.1354 50.5156 13.8921 50.8525 13.8921C51.1969 13.8921 51.5076 13.9482 51.7847 14.0605C52.0617 14.1654 52.2002 14.4237 52.2002 14.8354C52.2002 14.9852 51.9569 15.5392 51.4702 16.4976C50.0103 19.3726 49.2803 20.971 49.2803 21.293C49.2803 21.6074 49.4113 21.7646 49.6733 21.7646C50.0552 21.7646 50.6429 21.394 51.4365 20.6528C52.0355 20.0913 52.4136 19.7319 52.5708 19.5747C52.6606 19.5073 52.743 19.4736 52.8179 19.4736C52.9601 19.4736 53.0387 19.5448 53.0537 19.687ZM60.7915 14.4648C61.3605 14.4648 61.645 14.6595 61.645 15.0488C61.645 15.2585 61.5964 15.4119 61.499 15.5093C61.4017 15.6066 61.1921 15.9323 60.8701 16.4863C60.5557 17.0329 60.2038 17.7367 59.8145 18.5977C59.4326 19.4512 59.1855 20.1812 59.0732 20.7876C59.0508 20.8625 59.0396 20.9673 59.0396 21.1021C59.0396 21.5138 59.1519 21.7197 59.3765 21.7197C59.6011 21.7197 59.8669 21.6149 60.1738 21.4053C60.4808 21.1882 60.7541 20.9598 60.9937 20.7202C61.2332 20.4731 61.4653 20.2223 61.6899 19.9678C61.922 19.7132 62.0605 19.5672 62.1055 19.5298C62.1504 19.4924 62.2178 19.4736 62.3076 19.4736C62.4499 19.4736 62.536 19.5822 62.5659 19.7993C62.5959 20.0164 62.6108 20.241 62.6108 20.4731C62.6108 20.7052 62.5884 20.8662 62.5435 20.9561C62.3263 21.3828 61.8472 21.8957 61.106 22.4946C60.3722 23.0936 59.7021 23.3931 59.0957 23.3931C58.4967 23.3931 58.055 23.2096 57.7705 22.8428C57.486 22.4759 57.3438 22.0716 57.3438 21.6299C57.3438 21.1807 57.4186 20.7876 57.5684 20.4507C56.9469 21.2593 56.2319 21.9443 55.4233 22.5059C54.6222 23.0674 53.9671 23.3481 53.458 23.3481C52.9489 23.3481 52.5334 23.1947 52.2114 22.8877C51.7996 22.5059 51.5938 21.978 51.5938 21.3042C51.5938 20.6229 51.7435 19.9416 52.043 19.2603C52.3499 18.5715 52.7505 17.9463 53.2446 17.3848C53.7388 16.8158 54.2816 16.2992 54.873 15.835C56.1159 14.8617 57.2614 14.375 58.3096 14.375C58.7139 14.375 59.0433 14.4424 59.2979 14.5771C59.5524 14.7119 59.7134 14.8804 59.7808 15.0825C59.9604 14.813 60.1102 14.6445 60.23 14.5771C60.3573 14.5023 60.5444 14.4648 60.7915 14.4648ZM59.2979 15.7114C58.0176 15.7114 56.6924 16.4227 55.3223 17.8452C54.8356 18.3543 54.3864 18.9645 53.9746 19.6758C53.5703 20.387 53.3682 20.8737 53.3682 21.1357C53.3682 21.3978 53.443 21.5288 53.5928 21.5288C53.8024 21.5288 54.3864 21.117 55.3447 20.2935C56.3031 19.4624 56.9395 18.8522 57.2539 18.4629C57.5983 18.0286 58.2796 17.1115 59.2979 15.7114Z" fill="#108B33"/>
<path d="M90.7065 2.42386C90.4634 1.87898 89.7689 1.85718 89.4781 2.37155C88.1324 4.72109 85.7234 6.18574 82.9714 6.18574H79.4988C74.8977 6.18574 71.1647 9.93454 71.1647 14.5552C71.1647 14.8603 71.1994 15.1523 71.2298 15.4488C73.9992 13.4567 77.9969 11.7653 83.6659 11.7653C84.0479 11.7653 84.3604 12.0792 84.3604 12.4628C84.3604 12.8464 84.0479 13.1602 83.6659 13.1602C72.7534 13.1602 68.1262 19.8776 67.1018 22.4015C66.8153 23.112 67.1539 23.9228 67.8614 24.2148C68.5733 24.5113 69.3807 24.1669 69.6758 23.4607C69.7409 23.3038 70.583 21.3727 72.7968 19.5114C74.2032 21.425 76.877 23.2515 80.3887 22.8766C87.2035 22.3797 92 16.2421 92 8.72708C92 6.53882 91.5312 4.27211 90.7065 2.42386Z" fill="#108B33"/>
</svg>
